<svg aria-hidden="true" style="position: absolute; width: 0; height: 0; overflow: hidden;" version="1.1" xmlns="http://www.w3.org/2000/svg" xmlns:xlink="http://www.w3.org/1999/xlink">
<defs>
<symbol id="icon-plus" viewBox="0 0 32 32">
<path d="M16 6.667c0.736 0 1.333 0.597 1.333 1.333v16c0 0.736-0.597 1.333-1.333 1.333s-1.333-0.597-1.333-1.333v-16c0-0.736 0.597-1.333 1.333-1.333z"></path>
<path d="M6.667 16c0-0.736 0.597-1.333 1.333-1.333h16c0.736 0 1.333 0.597 1.333 1.333s-0.597 1.333-1.333 1.333h-16c-0.736 0-1.333-0.597-1.333-1.333z"></path>
</symbol>
<symbol id="icon-dots" viewBox="0 0 32 32">
<path d="M19.2 16c0 1.767-1.433 3.2-3.2 3.2s-3.2-1.433-3.2-3.2c0-1.767 1.433-3.2 3.2-3.2s3.2 1.433 3.2 3.2z"></path>
<path d="M10.667 16c0 1.767-1.433 3.2-3.2 3.2s-3.2-1.433-3.2-3.2c0-1.767 1.433-3.2 3.2-3.2s3.2 1.433 3.2 3.2z"></path>
<path d="M27.733 16c0 1.767-1.433 3.2-3.2 3.2s-3.2-1.433-3.2-3.2c0-1.767 1.433-3.2 3.2-3.2s3.2 1.433 3.2 3.2z"></path>
</symbol>
<symbol id="icon-left" viewBox="0 0 19 32">
<path fill="#4d5559" style="fill: var(--color1, #4d5559)" d="M18.968 3.476l-16.431 14.208-2.512-2.905 16.431-14.208 2.512 2.905z"></path>
<path fill="#4d5559" style="fill: var(--color1, #4d5559)" d="M17.134 28.753l-2.905 2.512-14.208-16.432 2.905-2.512 14.208 16.432z"></path>
</symbol>
</defs>
</svg>
